<svg width="20" height="21" viewBox="0 0 20 21" fill="none" xmlns="http://www.w3.org/2000/svg">
<path d="M8.4914 1.37974L16.4092 10.9984C17.9308 12.8468 17.9308 15.8411 16.4092 17.6896C14.8876 19.5381 12.4228 19.5381 10.9012 17.6896L2.29484 7.23456C1.3447 6.08033 1.3447 4.20678 2.29484 3.05255C3.24498 1.89831 4.78724 1.89831 5.73737 3.05255L12.9667 11.8348C13.3454 12.2948 13.3454 13.0476 12.9667 13.5076C12.588 13.9676 11.9684 13.9676 11.5897 13.5076L5.04887 5.56176L4.01611 6.81636L10.5569 14.7622C11.5071 15.9164 13.0493 15.9164 13.9995 14.7622C14.9496 13.608 14.9496 11.7344 13.9995 10.5802L6.77013 1.79794C5.24853 -0.0505095 2.78368 -0.0505092 1.26208 1.79794C-0.259517 3.64639 -0.259517 6.64072 1.26208 8.48917L9.86841 18.9442C11.9615 21.4869 15.3489 21.4869 17.442 18.9442C19.535 16.4015 19.535 12.2864 17.442 9.74377L9.52416 0.125135L8.4914 1.37974Z" fill="#86979F"/>
</svg>
