<svg width="20" height="20" viewBox="0 0 20 20" fill="none" xmlns="http://www.w3.org/2000/svg">
<path d="M20 10C20 15.5228 15.5228 20 10 20C4.47715 20 0 15.5228 0 10C0 4.47715 4.47715 0 10 0C15.5228 0 20 4.47715 20 10Z" fill="#899AA2"/>
<path fill-rule="evenodd" clip-rule="evenodd" d="M7.33472 5.66261C6.89377 5.65557 6.46912 5.88568 6.15586 6.30142C5.8426 6.71716 5.66689 7.2838 5.66806 7.87448C5.66806 9.10741 6.41425 10.1069 7.33472 10.1069C8.2552 10.1069 9.00138 9.10741 9.00138 7.87448C9.00256 7.2838 8.82685 6.71716 8.51359 6.30142C8.20032 5.88568 7.77568 5.65557 7.33472 5.66261ZM16.6643 11.7226C16.1318 14.6001 13.3545 17.0026 9.99878 17.0026C6.66978 17.0026 3.90878 14.6351 3.34503 11.7901C3.23078 11.0801 3.81228 10.9126 4.36003 11.0451C6.19242 11.5749 8.09271 11.8327 10 11.8101C11.903 11.8321 13.799 11.5752 15.6275 11.0476C16.16 10.9126 16.7303 11.0651 16.6643 11.7226ZM14.8566 12.1226C14.8046 12.1426 14.7519 12.1576 14.6986 12.1751C14.6931 12.1776 14.8691 12.1201 14.8639 12.1226C13.2827 12.5579 11.6483 12.7691 10.0084 12.7501C8.05136 12.7501 6.30112 12.5326 5.09661 12.1001C4.22336 11.8401 4.39086 12.8676 5.00461 13.1826C6.57475 13.8974 8.28305 14.2576 10.0081 14.2376C12.0601 14.2376 13.8886 13.7601 15.0964 13.1426C15.6679 12.7751 15.7809 11.7901 14.8566 12.1226ZM13.6679 5.66261C13.227 5.65562 12.8024 5.88402 12.4892 6.29667C12.1759 6.70932 12.0002 7.27176 12.0012 7.85811C11.9924 8.65759 12.3081 9.40138 12.8274 9.80453C13.3466 10.2077 13.9889 10.2077 14.5081 9.80453C15.0273 9.40138 15.343 8.65759 15.3342 7.85811C15.3353 7.27184 15.1596 6.70947 14.8464 6.29684C14.5332 5.8842 14.1087 5.65575 13.6679 5.66261Z" fill="#50555C"/>
</svg>
