<svg width="20" height="28" viewBox="0 0 20 28" fill="none" xmlns="http://www.w3.org/2000/svg">
<path d="M19.4293 19.7859L15.0543 17.1609C14.8674 17.0494 14.6597 17.0259 14.4624 17.094C14.2652 17.162 14.089 17.318 13.9605 17.5383L12.023 20.8523C8.98232 18.8452 6.53523 15.4193 5.10156 11.1623L7.46875 8.44976C7.62644 8.27021 7.73804 8.02362 7.78668 7.74732C7.83531 7.47103 7.81832 7.18007 7.73828 6.91851L5.86328 0.793508C5.77543 0.511544 5.62007 0.28133 5.42396 0.142562C5.22786 0.00379422 5.00332 -0.0348292 4.78906 0.0333518L0.726562 1.34585C0.519988 1.41263 0.335682 1.57547 0.203725 1.80779C0.0717677 2.0401 -4.75863e-05 2.32818 2.36571e-08 2.62499C2.36571e-08 16.6523 8.12109 28 18.125 28C18.3371 28.0002 18.5429 27.8997 18.709 27.7149C18.875 27.5302 18.9913 27.2721 19.0391 26.9828L19.9766 21.2953C20.0249 20.9939 19.9968 20.6783 19.8969 20.4028C19.797 20.1273 19.6317 19.9092 19.4293 19.7859Z" fill="white"/>
</svg>
